<mxfile host="app.diagrams.net" modified="2023-07-11T18:45:53.033Z" agent="Mozilla/5.0 (Windows NT 10.0; Win64; x64) AppleWebKit/537.36 (KHTML, like Gecko) Chrome/114.0.0.0 Safari/537.36" version="21.6.2" etag="R3bKK33El2b7HBbLr0TH" type="github">
  <diagram name="PÃ¡gina-1" id="6TDohwTQlYQYBdiiwxEO">
    <mxGraphModel>
      <root>
        <mxCell id="0" />
        <mxCell id="1" parent="0" />
      </root>
    </mxGraphModel>
  </diagram>
</mxfile>
